<?xml version="1.0" encoding="UTF-8"?>
<svg id="_레이어_2" data-name="레이어 2" xmlns="http://www.w3.org/2000/svg" viewBox="0 0 143.11 143.11">
  <defs>
    <style>
      .cls-1 {
        fill: none;
        stroke: #f2f2f2;
        stroke-miterlimit: 10;
        stroke-width: 4px;
      }

      .cls-2 {
        fill: #0e3c5b;
      }
    </style>
  </defs>
  <g id="_레이어_1-2" data-name="레이어 1">
    <g>
      <circle class="cls-2" cx="71.56" cy="71.56" r="71.56"/>
      <g>
        <path class="cls-1" d="M121.37,79.55l-28.5-29.49c-.97-1.02-2.36-1.54-3.76-1.4l-36.28,3.66c-2.41.24-4.2,2.33-4.09,4.74h0c.11,2.26,1.86,4.1,4.11,4.31l16.5,1.59"/>
        <path class="cls-1" d="M104.25,100.53l-17.5-19.98c-.84-.71-1.91-1.08-3.01-1.06l-34.94.71c-1.41.03-2.75-.6-3.63-1.69l-22.41-27.77c-1.43-1.77-1.33-4.32.23-5.98l.7-.74c1.62-1.72,4.29-1.92,6.14-.45l19.5,15.46"/>
      </g>
    </g>
  </g>
</svg>