<?xml version="1.0" encoding="UTF-8"?>
<svg id="_레이어_2" data-name="레이어 2" xmlns="http://www.w3.org/2000/svg" viewBox="0 0 380.76 82.48">
  <defs>
    <style>
      .cls-1 {
        fill: #00d4ea;
        font-family: GamtanRoad-Tantan-KSCpc-EUC-H, 'GamtanRoad Tantan';
        font-size: 68px;
      }

      .cls-2 {
        fill: none;
        stroke: #00d4ea;
        stroke-miterlimit: 10;
        stroke-width: 4px;
      }
    </style>
  </defs>
  <g id="_레이어_1-2" data-name="레이어 1">
    <g>
      <g>
        <path class="cls-2" d="M113.6,67.05l-19.17-19.84c-.65-.69-1.59-1.04-2.53-.94l-24.41,2.46c-1.62.16-2.83,1.57-2.75,3.19h0c.07,1.52,1.25,2.76,2.76,2.9l11.1,1.07"/>
        <path class="cls-2" d="M102.09,81.16l-11.77-13.44c-.57-.47-1.29-.73-2.03-.71l-23.5.47c-.95.02-1.85-.4-2.44-1.14l-15.08-18.68c-.96-1.19-.9-2.91.15-4.02l.47-.5c1.09-1.16,2.88-1.29,4.13-.3l13.12,10.4"/>
      </g>
      <path class="cls-2" d="M1.59,9.93l13.15,17.33c.1.14.22.27.34.39l7.94,7.7c.21.21.4.44.55.7l6.47,11.27c.84,1.46,2.67,2.02,4.18,1.27h0c1.47-.73,2.15-2.46,1.57-3.99l-3.15-8.28c-.16-.43-.23-.89-.2-1.35l.23-3.45c.11-1.57,1.35-2.84,2.92-2.96l12.45-1.02c.61-.05,1.21.07,1.75.36l14.68,7.76c.68.36,1.47.46,2.22.28l2.36-.56c2.71-.64,3.36-4.2,1.05-5.75l-18.97-12.74c-.48-.32-1.04-.51-1.62-.54l-24.19-1.21c-1.16-.06-2.2-.74-2.71-1.79L13.35,1.21"/>
    </g>
    <text class="cls-1" transform="translate(136.39 62.96)"><tspan x="0" y="0">바로바로</tspan></text>
  </g>
</svg>